<svg width="40" height="40" viewBox="0 0 40 40" fill="none" xmlns="http://www.w3.org/2000/svg">
<path fill-rule="evenodd" clip-rule="evenodd" d="M10.9429 8.39136C11.0422 9.8649 11.2906 11.3053 11.6879 12.6795L9.70112 14.6663C9.0223 12.6795 8.59183 10.5768 8.44282 8.39136H10.9429V8.39136ZM27.2676 28.2924C28.6749 28.6898 30.1153 28.9382 31.5723 29.0375V31.5044C29.3868 31.3554 27.2842 30.925 25.2808 30.2627L27.2676 28.2924V28.2924ZM12.532 5.08008H6.73721C5.82659 5.08008 5.08154 5.82513 5.08154 6.73574C5.08154 22.2824 17.6812 34.8821 33.2279 34.8821C34.1385 34.8821 34.8835 34.137 34.8835 33.2264V27.4481C34.8835 26.5375 34.1385 25.7924 33.2279 25.7924C31.1748 25.7924 29.1715 25.4613 27.3171 24.8487C27.1516 24.7825 26.9694 24.7659 26.8039 24.7659C26.3734 24.7659 25.9595 24.9315 25.6283 25.2461L21.9859 28.8885C17.3004 26.4878 13.4592 22.6632 11.0751 17.9777L14.7175 14.3352C15.1811 13.8717 15.3136 13.226 15.1314 12.6465C14.5188 10.7921 14.1877 8.80532 14.1877 6.73574C14.1877 5.82513 13.4427 5.08008 12.532 5.08008Z" fill="white"/>
</svg>
