<svg width="65" height="40" viewBox="0 0 65 40" fill="none" xmlns="http://www.w3.org/2000/svg">
<rect width="64.0129" height="39.0323" transform="translate(0.90332 0.393555)" fill="white"/>
<g clip-path="url(#clip0_2_1303)">
<path d="M25.2693 24.844C25.016 25.4349 24.7025 25.9982 24.3338 26.525C23.8441 27.2266 23.4421 27.709 23.1351 27.9795C22.6527 28.418 22.1411 28.6446 21.5929 28.6592C21.1982 28.6592 20.7232 28.5496 20.1677 28.3157C19.6827 28.1053 19.1614 27.9911 18.6328 27.9795C18.0899 27.9893 17.5539 28.1034 17.0541 28.3157C16.4913 28.5422 16.0382 28.6592 15.6873 28.6738C15.1611 28.6957 14.6349 28.4619 14.1086 27.9722C13.7724 27.6798 13.3558 27.1755 12.8515 26.4665C12.2859 25.6541 11.8381 24.7658 11.5213 23.828C11.1485 22.7463 10.9585 21.7011 10.9585 20.6852C10.9585 19.5231 11.207 18.5218 11.7113 17.6812C12.0929 17.0221 12.6362 16.4712 13.29 16.0806C13.9346 15.6917 14.6715 15.4823 15.4242 15.474C15.8408 15.474 16.3963 15.6055 17.076 15.8613C17.7558 16.1171 18.1943 16.2487 18.3843 16.2487C18.5305 16.2487 19.0129 16.0952 19.8388 15.7955C20.6184 15.5178 21.2762 15.4009 21.8122 15.4447C23.274 15.5617 24.3703 16.1391 25.1012 17.1769C23.7929 17.9663 23.1497 19.0772 23.1643 20.4952C23.179 21.6061 23.5809 22.527 24.3703 23.2579C24.7211 23.5885 25.1267 23.8556 25.569 24.0473C25.4813 24.325 25.3789 24.5881 25.2693 24.844ZM21.9218 11.6733C21.9218 12.5431 21.6075 13.3544 20.9717 14.0999C20.2115 14.9916 19.2833 15.5032 18.2893 15.4228C18.2742 15.3138 18.2669 15.2039 18.2674 15.0939C18.2674 14.2607 18.6328 13.369 19.276 12.6381C19.6178 12.2501 20.0357 11.9366 20.5039 11.7172C20.9404 11.4927 21.4177 11.3585 21.9072 11.3225C21.9145 11.4395 21.9218 11.5564 21.9218 11.6733Z" fill="#272727"/>
<path d="M35.1583 20.3929C35.5189 20.3929 35.8332 20.3491 36.1012 20.2613C36.3692 20.1688 36.5909 20.0396 36.7663 19.874C36.9466 19.7034 37.0806 19.4988 37.1683 19.26C37.256 19.0164 37.2998 18.746 37.2998 18.4487C37.2998 18.1661 37.256 17.9103 37.1683 17.6813C37.0806 17.4523 36.949 17.2574 36.7736 17.0966C36.5982 16.9358 36.3765 16.814 36.1085 16.7312C35.8405 16.6434 35.5238 16.5996 35.1583 16.5996H33.6892V20.3929H35.1583ZM35.1583 15.0793C35.8648 15.0793 36.4764 15.1622 36.9929 15.3278C37.5093 15.4935 37.9357 15.725 38.2719 16.0222C38.6081 16.3194 38.8566 16.6751 39.0174 17.0893C39.1831 17.5035 39.2659 17.9566 39.2659 18.4487C39.2659 18.9604 39.1806 19.4306 39.0101 19.8594C38.8396 20.2833 38.5838 20.6487 38.2427 20.9557C37.9016 21.2627 37.4728 21.5014 36.9563 21.672C36.4447 21.8425 35.8454 21.9278 35.1583 21.9278H33.6892V25.648H31.7231V15.0793H35.1583Z" fill="#272727"/>
<path d="M44.5139 22.4467C43.9926 22.4711 43.554 22.5174 43.1983 22.5856C42.8426 22.6489 42.5576 22.7318 42.3432 22.8341C42.1288 22.9364 41.9753 23.0558 41.8827 23.1922C41.7901 23.3286 41.7439 23.4773 41.7439 23.6381C41.7439 23.9548 41.8364 24.1813 42.0216 24.3178C42.2116 24.4542 42.4577 24.5224 42.7598 24.5224C43.1301 24.5224 43.4493 24.4566 43.7173 24.3251C43.9901 24.1887 44.2557 23.984 44.5139 23.7111V22.4467ZM40.3771 19.1943C41.2395 18.4049 42.2774 18.0102 43.4907 18.0102C43.9292 18.0102 44.3215 18.0833 44.6674 18.2295C45.0134 18.3708 45.3057 18.5706 45.5445 18.8288C45.7832 19.0822 45.9635 19.3867 46.0853 19.7424C46.212 20.0981 46.2754 20.4879 46.2754 20.9118V25.648H45.4568C45.2862 25.648 45.1547 25.6236 45.0621 25.5749C44.9695 25.5213 44.8964 25.4166 44.8428 25.2606L44.682 24.7198C44.492 24.8903 44.3068 25.0414 44.1266 25.1729C43.9463 25.2996 43.7587 25.4068 43.5638 25.4945C43.3689 25.5822 43.1593 25.648 42.9352 25.6919C42.7159 25.7406 42.4723 25.7649 42.2043 25.7649C41.8876 25.7649 41.5952 25.7235 41.3273 25.6407C41.0593 25.553 40.8278 25.4239 40.6329 25.2533C40.438 25.0828 40.287 24.8708 40.1798 24.6174C40.0726 24.3641 40.019 24.0693 40.019 23.7331C40.019 23.543 40.0506 23.3554 40.114 23.1703C40.1773 22.9803 40.2796 22.8 40.4209 22.6294C40.5671 22.4589 40.7547 22.2981 40.9837 22.147C41.2127 21.996 41.4929 21.8644 41.8243 21.7524C42.1605 21.6403 42.5503 21.5501 42.9937 21.4819C43.4371 21.4088 43.9438 21.365 44.5139 21.3504V20.9118C44.5139 20.41 44.4067 20.0396 44.1923 19.8009C43.9779 19.5573 43.6685 19.4354 43.2641 19.4354C42.9718 19.4354 42.7281 19.4696 42.5332 19.5378C42.3432 19.606 42.1751 19.6839 42.0289 19.7717C41.8827 19.8545 41.7487 19.93 41.6269 19.9982C41.51 20.0664 41.3784 20.1006 41.2322 20.1006C41.1055 20.1006 40.9984 20.0689 40.9106 20.0055C40.8229 19.9373 40.7523 19.8594 40.6987 19.7717L40.3771 19.1943Z" fill="#272727"/>
<path d="M54.8657 18.1491L50.78 27.7091C50.7264 27.8358 50.6558 27.9308 50.5681 27.9942C50.4853 28.0624 50.3561 28.0965 50.1807 28.0965H48.8359L50.2392 25.0852L47.206 18.1491H48.792C48.9333 18.1491 49.043 18.1832 49.1209 18.2514C49.2038 18.3196 49.2647 18.3976 49.3036 18.4853L50.897 22.3736C50.9506 22.5052 50.9944 22.6367 51.0285 22.7683C51.0675 22.8999 51.1041 23.0339 51.1382 23.1703C51.182 23.0339 51.2259 22.8999 51.2697 22.7683C51.3136 22.6319 51.3623 22.4979 51.4159 22.3663L52.9215 18.4853C52.9605 18.3878 53.0239 18.3074 53.1116 18.2441C53.2042 18.1808 53.3065 18.1491 53.4186 18.1491H54.8657Z" fill="#272727"/>
</g>
<defs>
<clipPath id="clip0_2_1303">
<rect width="43.7161" height="17.1742" fill="white" transform="translate(10.9585 11.3225)"/>
</clipPath>
</defs>
</svg>
