<svg width="31" height="31" viewBox="0 0 31 31" fill="none" xmlns="http://www.w3.org/2000/svg">
<path d="M19.9504 16.7886C20.1257 16.6134 20.2244 16.3758 20.2246 16.1279V15.6542C20.2217 15.4068 20.1235 15.1702 19.9504 14.9935L13.5428 8.59843C13.4258 8.48043 13.2665 8.41406 13.1003 8.41406C12.9341 8.41406 12.7748 8.48043 12.6578 8.59843L11.7727 9.48352C11.6554 9.59841 11.5893 9.75566 11.5893 9.91983C11.5893 10.084 11.6554 10.2412 11.7727 10.3561L17.32 15.891L11.7727 21.4259C11.6547 21.543 11.5883 21.7023 11.5883 21.8685C11.5883 22.0347 11.6547 22.194 11.7727 22.311L12.6578 23.1836C12.7748 23.3016 12.9341 23.368 13.1003 23.368C13.2665 23.368 13.4258 23.3016 13.5428 23.1836L19.9504 16.7886Z" fill="#BCBCBC"/>
</svg>
