<svg width="31" height="31" viewBox="0 0 31 31" fill="none" xmlns="http://www.w3.org/2000/svg">
<path d="M11.1792 16.7886C11.0038 16.6134 10.9051 16.3758 10.9049 16.1279V15.6542C10.9078 15.4068 11.006 15.1702 11.1792 14.9935L17.5867 8.59843C17.7037 8.48043 17.863 8.41406 18.0292 8.41406C18.1954 8.41406 18.3547 8.48043 18.4718 8.59843L19.3569 9.48352C19.4741 9.59841 19.5402 9.75566 19.5402 9.91983C19.5402 10.084 19.4741 10.2412 19.3569 10.3561L13.8095 15.891L19.3569 21.4259C19.4749 21.543 19.5412 21.7023 19.5412 21.8685C19.5412 22.0347 19.4749 22.194 19.3569 22.311L18.4718 23.1836C18.3547 23.3016 18.1954 23.368 18.0292 23.368C17.863 23.368 17.7037 23.3016 17.5867 23.1836L11.1792 16.7886Z" fill="#BCBCBC"/>
</svg>
