<svg width="65" height="40" viewBox="0 0 65 40" fill="none" xmlns="http://www.w3.org/2000/svg">
<rect width="64.0129" height="39.0323" transform="translate(0.90332 0.393555)" fill="white"/>
<g clip-path="url(#clip0_2_1294)">
<path d="M31.4092 19.6727V24.6868H29.8274V12.3096H34.0227C35.0347 12.2898 36.0074 12.6748 36.7442 13.3854C37.4811 14.0467 37.8938 15.0041 37.8741 15.9912C37.8938 16.988 37.4811 17.9455 36.7442 18.6166C36.0074 19.3174 35.1034 19.6727 34.0325 19.6727H31.4092ZM31.4092 13.8296V18.1527H34.062C34.6515 18.1725 35.2213 17.9356 35.6242 17.5112C36.4593 16.7018 36.4691 15.3693 35.6635 14.5304L35.6242 14.4909C35.2213 14.0566 34.6515 13.8197 34.062 13.8394L31.4092 13.8296ZM41.5192 15.9418C42.6884 15.9418 43.6119 16.2577 44.2899 16.8795C44.9678 17.5112 45.3019 18.3699 45.3019 19.4655V24.677H43.7888V23.5024H43.72C43.0617 24.4697 42.1971 24.9533 41.1066 24.9533C40.183 24.9533 39.397 24.677 38.778 24.1242C38.1689 23.611 37.825 22.851 37.8446 22.0515C37.8446 21.173 38.1787 20.4821 38.837 19.959C39.4952 19.4359 40.3795 19.1792 41.4799 19.1792C42.4231 19.1792 43.1895 19.3569 43.7986 19.6925V19.3273C43.7986 18.7844 43.5628 18.2712 43.1502 17.9257C42.7277 17.5507 42.1873 17.3434 41.6273 17.3434C40.743 17.3434 40.0454 17.7184 39.5247 18.4686L38.1296 17.5901C38.8861 16.4945 40.016 15.9418 41.5192 15.9418ZM39.4756 22.091C39.4756 22.5055 39.6721 22.8904 39.9963 23.1273C40.35 23.4037 40.7823 23.5517 41.2245 23.5419C41.8926 23.5419 42.5312 23.2754 43.0028 22.8016C43.5235 22.3081 43.7888 21.7258 43.7888 21.0546C43.2975 20.6598 42.6098 20.4624 41.7255 20.4624C41.0869 20.4624 40.5465 20.6203 40.1142 20.9263C39.6917 21.2421 39.4756 21.6271 39.4756 22.091ZM53.9872 16.2182L48.7013 28.4178H47.0704L49.0354 24.1538L45.5573 16.228H47.2767L49.7821 22.3081H49.8214L52.2678 16.228L53.9872 16.2182Z" fill="#5F6368"/>
<path d="M25.0132 18.587C25.0132 18.1034 24.9739 17.6198 24.8953 17.146H18.2241V19.88H22.0461C21.8889 20.7585 21.378 21.5481 20.6313 22.0416V23.8183H22.9107C24.2469 22.5845 25.0132 20.7585 25.0132 18.587Z" fill="#4285F4"/>
<path d="M18.2242 25.5355C20.1303 25.5355 21.7416 24.9038 22.9108 23.8181L20.6314 22.0414C19.9928 22.4757 19.1773 22.7225 18.2242 22.7225C16.3771 22.7225 14.815 21.469 14.2549 19.791H11.9067V21.6269C13.1054 24.0155 15.5518 25.5355 18.2242 25.5355Z" fill="#34A853"/>
<path d="M14.2549 19.7911C13.9601 18.9127 13.9601 17.9553 14.2549 17.067V15.241H11.9067C11.4077 16.2289 11.1477 17.3212 11.1477 18.429C11.1477 19.5369 11.4077 20.6292 11.9067 21.6171L14.2549 19.7911Z" fill="#FBBC04"/>
<path d="M18.2242 14.1355C19.2362 14.1157 20.2089 14.5007 20.936 15.2014L22.9501 13.1781C21.6728 11.964 19.9829 11.3027 18.2242 11.3225C15.5518 11.3225 13.1054 12.8425 11.9067 15.2409L14.2549 17.0768C14.815 15.389 16.3771 14.1355 18.2242 14.1355Z" fill="#EA4335"/>
</g>
<defs>
<clipPath id="clip0_2_1294">
<rect width="42.9355" height="17.1742" fill="white" transform="translate(11.0515 11.3225)"/>
</clipPath>
</defs>
</svg>
