<svg width="65" height="40" viewBox="0 0 65 40" fill="none" xmlns="http://www.w3.org/2000/svg">
<rect width="64.0129" height="39.0323" transform="translate(0.90332 0.393555)" fill="white"/>
<g clip-path="url(#clip0_2_1283)">
<path d="M38.1897 29.8729H27.6343V10.9033H38.1899L38.1897 29.8729Z" fill="#FF5F00"/>
<path d="M28.3038 20.3885C28.3038 16.5405 30.1055 13.1127 32.9112 10.9037C30.7874 9.22909 28.1607 8.32024 25.4562 8.32423C18.794 8.32423 13.3936 13.7255 13.3936 20.3885C13.3936 27.0514 18.794 32.4527 25.4562 32.4527C28.1608 32.4567 30.7876 31.5479 32.9114 29.8733C30.1059 27.6646 28.3038 24.2366 28.3038 20.3885Z" fill="#EB001B"/>
<path d="M52.4306 20.3885C52.4306 27.0514 47.0302 32.4527 40.368 32.4527C37.6631 32.4567 35.036 31.5478 32.9119 29.8733C35.7183 27.6642 37.52 24.2366 37.52 20.3885C37.52 16.5403 35.7183 13.1127 32.9119 10.9037C35.036 9.22914 37.663 8.32031 40.3678 8.32423C47.03 8.32423 52.4304 13.7255 52.4304 20.3885" fill="#F79E1B"/>
</g>
<defs>
<clipPath id="clip0_2_1283">
<rect width="39.0323" height="23.9516" fill="white" transform="translate(13.3936 8.32422)"/>
</clipPath>
</defs>
</svg>
