<svg width="65" height="40" viewBox="0 0 65 40" fill="none" xmlns="http://www.w3.org/2000/svg">
<rect width="64.0129" height="39.0323" transform="translate(0.903076 0.393555)" fill="white"/>
<g clip-path="url(#clip0_2_1289)">
<path d="M33.9396 17.2612C33.9111 19.5086 35.9424 20.7628 37.4727 21.5084C39.045 22.2736 39.5731 22.7642 39.5671 23.4483C39.555 24.4954 38.3128 24.9575 37.1502 24.9755C35.1218 25.007 33.9426 24.4279 33.005 23.9899L32.2743 27.4089C33.215 27.8425 34.9568 28.2206 36.7631 28.2371C41.0028 28.2371 43.7768 26.1442 43.7918 22.8992C43.8083 18.781 38.0953 18.553 38.1343 16.7121C38.1478 16.1541 38.6804 15.5585 39.8476 15.4069C40.4252 15.3304 42.02 15.2719 43.8278 16.1045L44.5374 12.7965C43.5652 12.4424 42.3155 12.1034 40.7598 12.1034C36.7691 12.1034 33.9621 14.2247 33.9396 17.2612ZM51.356 12.3884C50.5819 12.3884 49.9293 12.84 49.6382 13.5331L43.5817 27.994H47.8184L48.6616 25.6641H53.8389L54.328 27.994H58.0621L54.8036 12.3884H51.356ZM51.9486 16.6041L53.1713 22.4641H49.8228L51.9486 16.6041ZM28.8028 12.3884L25.4632 27.994H29.5004L32.8384 12.3884H28.8028ZM22.8303 12.3884L18.6281 23.0102L16.9283 13.9787C16.7288 12.9705 15.9411 12.3884 15.0665 12.3884H8.19685L8.10083 12.8415C9.51106 13.1476 11.1133 13.6411 12.084 14.1692C12.6781 14.4918 12.8476 14.7738 13.0427 15.5405L16.2622 27.994H20.5289L27.07 12.3884H22.8303Z" fill="url(#paint0_linear_2_1289)"/>
</g>
<defs>
<linearGradient id="paint0_linear_2_1289" x1="31.0701" y1="28.5607" x2="31.5371" y2="11.9912" gradientUnits="userSpaceOnUse">
<stop stop-color="#222357"/>
<stop offset="1" stop-color="#254AA5"/>
</linearGradient>
<clipPath id="clip0_2_1289">
<rect width="49.9613" height="16.1984" fill="white" transform="translate(8.10083 12.1033)"/>
</clipPath>
</defs>
</svg>
